<svg width="578" height="494" viewBox="0 0 578 494" fill="none" xmlns="http://www.w3.org/2000/svg">
<circle cx="17.5" cy="225.5" r="17.5" fill="#BA90FF" fill-opacity="0.35"/>
<circle cx="124.5" cy="476.5" r="17.5" fill="#843CFF"/>
<circle cx="537.5" cy="458.5" r="17.5" fill="#BA90FF" fill-opacity="0.35"/>
<rect x="267" y="397" width="25" height="25" fill="#843CFF"/>
<rect x="57" y="17" width="25" height="25" fill="#843CFF"/>
<rect x="498" y="92" width="25" height="25" fill="#BA90FF" fill-opacity="0.35"/>
<path d="M287.598 369.93C407.745 369.93 505.144 362.736 505.144 353.861C505.144 344.986 407.745 337.791 287.598 337.791C167.451 337.791 70.052 344.986 70.052 353.861C70.052 362.736 167.451 369.93 287.598 369.93Z" fill="#D1D3D4"/>
<path d="M431.42 137.302C434.623 137.248 437.806 137.827 440.785 139.004C443.765 140.181 446.483 141.933 448.785 144.162C451.086 146.39 452.926 149.05 454.198 151.99C455.47 154.93 456.151 158.091 456.2 161.294V328.721C456.104 334.275 453.811 339.565 449.823 343.432C445.834 347.299 440.475 349.428 434.92 349.353H199.006C193.451 349.428 188.092 347.299 184.104 343.432C180.115 339.565 177.822 334.275 177.726 328.721V132.613C177.822 127.059 180.115 121.769 184.104 117.902C188.092 114.035 193.451 111.905 199.006 111.98H290.006C304.44 111.98 316.13 123.332 316.13 137.316H431.42V137.302Z" fill="#231F20"/>
<path d="M434.878 350.053H199.006C193.264 350.132 187.725 347.93 183.605 343.931C179.484 339.932 177.118 334.462 177.026 328.721V132.613C177.118 126.872 179.484 121.402 183.605 117.403C187.725 113.404 193.264 111.202 199.006 111.28H290.006C304.552 111.28 316.438 122.59 316.816 136.63H431.42C445.42 136.63 456.844 147.702 456.844 161.308V328.721C456.752 334.459 454.388 339.927 450.27 343.926C446.153 347.925 440.618 350.128 434.878 350.053ZM199.006 112.666C193.633 112.587 188.448 114.644 184.59 118.383C180.731 122.123 178.514 127.241 178.426 132.613V328.721C178.518 334.09 180.736 339.204 184.594 342.941C188.452 346.678 193.635 348.732 199.006 348.653H434.878C440.249 348.732 445.432 346.678 449.29 342.941C453.148 339.204 455.366 334.09 455.458 328.721V161.294C455.458 148.458 444.678 138.002 431.42 138.002H316.2C316.014 138.002 315.836 137.928 315.705 137.797C315.574 137.666 315.5 137.488 315.5 137.302C315.5 123.724 304.09 112.666 290.076 112.666H199.006Z" fill="#231F20"/>
<path d="M216.1 321.89V61.1825H389.938L430.566 101.818V317.369L216.1 321.89Z" fill="#843CFF"/>
<path d="M409.048 115.298H233.908C233.817 115.298 233.726 115.279 233.642 115.244C233.558 115.209 233.482 115.157 233.418 115.092C233.354 115.027 233.304 114.949 233.27 114.865C233.236 114.78 233.22 114.689 233.222 114.598C233.222 114.415 233.294 114.239 233.422 114.108C233.55 113.977 233.725 113.902 233.908 113.898H409.048C409.231 113.902 409.406 113.977 409.534 114.108C409.662 114.239 409.734 114.415 409.734 114.598C409.736 114.689 409.719 114.78 409.686 114.865C409.652 114.949 409.602 115.027 409.538 115.092C409.474 115.157 409.398 115.209 409.314 115.244C409.23 115.279 409.139 115.298 409.048 115.298Z" fill="white"/>
<path d="M409.048 143.265H233.908C233.722 143.265 233.544 143.191 233.413 143.06C233.282 142.929 233.208 142.751 233.208 142.565C233.208 142.38 233.282 142.202 233.413 142.07C233.544 141.939 233.722 141.865 233.908 141.865H409.048C409.234 141.865 409.412 141.939 409.543 142.07C409.674 142.202 409.748 142.38 409.748 142.565C409.748 142.751 409.674 142.929 409.543 143.06C409.412 143.191 409.234 143.265 409.048 143.265Z" fill="white"/>
<path d="M409.048 171.232H233.908C233.725 171.229 233.55 171.153 233.422 171.023C233.294 170.892 233.222 170.716 233.222 170.533C233.22 170.441 233.236 170.351 233.27 170.266C233.304 170.181 233.354 170.104 233.418 170.039C233.482 169.973 233.558 169.922 233.642 169.886C233.726 169.851 233.817 169.833 233.908 169.833H409.048C409.139 169.833 409.23 169.851 409.314 169.886C409.398 169.922 409.474 169.973 409.538 170.039C409.602 170.104 409.652 170.181 409.686 170.266C409.719 170.351 409.736 170.441 409.734 170.533C409.734 170.716 409.662 170.892 409.534 171.023C409.406 171.153 409.231 171.229 409.048 171.232Z" fill="white"/>
<path d="M409.048 199.186H233.908C233.722 199.186 233.544 199.112 233.413 198.981C233.282 198.85 233.208 198.672 233.208 198.486C233.208 198.3 233.282 198.122 233.413 197.991C233.544 197.86 233.722 197.786 233.908 197.786H409.048C409.234 197.786 409.412 197.86 409.543 197.991C409.674 198.122 409.748 198.3 409.748 198.486C409.748 198.672 409.674 198.85 409.543 198.981C409.412 199.112 409.234 199.186 409.048 199.186Z" fill="white"/>
<path d="M257.498 81.6891H234.412C234.226 81.6891 234.048 81.6154 233.917 81.4841C233.786 81.3529 233.712 81.1749 233.712 80.9893C233.716 80.8048 233.791 80.6288 233.921 80.4983C234.052 80.3678 234.228 80.293 234.412 80.2894H257.498C257.681 80.293 257.856 80.3684 257.984 80.4992C258.112 80.6301 258.184 80.806 258.184 80.9893C258.186 81.0805 258.17 81.1712 258.136 81.256C258.102 81.3409 258.052 81.4181 257.988 81.4833C257.924 81.5485 257.848 81.6003 257.764 81.6356C257.68 81.671 257.589 81.6892 257.498 81.6891Z" fill="white"/>
<path d="M154.808 186.392C151.882 187.512 147.052 188.562 145.806 184.488C145.606 183.765 145.544 183.009 145.624 182.263C145.728 181.166 145.925 180.079 146.212 179.015C146.991 176.02 148.026 173.098 149.306 170.281C149.614 169.567 150.216 168.713 150.944 168.965C151.672 169.217 151.672 170.001 151.658 170.645C151.658 172.492 151.35 174.354 151.392 176.244C155.284 175.25 157.734 171.135 161.43 170.253C162.48 170.001 163.74 169.931 163.852 171.275C163.992 172.94 160.982 174.256 159.974 175.124C161.098 174.15 162.394 173.395 163.796 172.898C164.186 172.723 164.617 172.655 165.042 172.702C165.253 172.728 165.451 172.823 165.602 172.972C165.754 173.122 165.853 173.317 165.882 173.528C165.855 173.882 165.695 174.212 165.434 174.452C164.862 175.104 164.224 175.695 163.53 176.216C164.224 175.403 165.171 174.846 166.218 174.634C166.477 174.548 166.755 174.539 167.018 174.608C167.282 174.678 167.52 174.823 167.702 175.026C168.122 175.74 167.296 176.524 166.582 176.93C167.153 176.424 167.849 176.081 168.598 175.936C168.972 175.873 169.356 175.955 169.671 176.166C169.986 176.377 170.208 176.7 170.292 177.07C170.274 177.364 170.194 177.651 170.056 177.912C169.919 178.172 169.727 178.401 169.494 178.581C165.658 182.319 159.736 184.488 154.808 186.392Z" fill="white"/>
<path d="M150.118 188.1C149.211 188.12 148.31 187.934 147.486 187.554C146.92 187.278 146.418 186.886 146.012 186.404C145.607 185.922 145.308 185.36 145.134 184.754C144.907 183.944 144.836 183.099 144.924 182.263C145.038 181.129 145.239 180.006 145.526 178.903C146.323 175.872 147.372 172.913 148.662 170.057C149.25 168.657 150.216 168.041 151.168 168.363C151.728 168.545 152.4 169.119 152.358 170.729C152.358 171.512 152.358 172.31 152.232 173.108C152.106 173.906 152.12 174.508 152.092 175.292C153.539 174.614 154.879 173.727 156.068 172.66C157.545 171.259 159.321 170.21 161.262 169.595C161.679 169.446 162.124 169.388 162.566 169.424C163.007 169.46 163.436 169.59 163.824 169.805C164.039 169.972 164.215 170.183 164.341 170.425C164.467 170.667 164.539 170.933 164.552 171.205C164.574 171.469 164.546 171.735 164.468 171.988C164.7 171.953 164.936 171.953 165.168 171.988C165.533 172.046 165.868 172.222 166.122 172.491C166.375 172.76 166.532 173.105 166.568 173.472C166.576 173.598 166.576 173.724 166.568 173.85C166.903 173.81 167.243 173.861 167.552 173.999C167.86 174.138 168.125 174.357 168.318 174.634C168.416 174.812 168.483 175.007 168.514 175.208C169.151 175.143 169.789 175.329 170.292 175.726C170.483 175.88 170.64 176.071 170.756 176.288C170.871 176.504 170.942 176.741 170.964 176.986C170.964 177.383 170.874 177.776 170.702 178.134C170.53 178.493 170.28 178.808 169.97 179.057C166.204 182.767 160.632 184.908 155.704 186.798L155.046 187.05C153.478 187.686 151.809 188.041 150.118 188.1ZM150.692 169.623C150.524 169.623 150.188 170.001 149.95 170.547C148.69 173.33 147.664 176.215 146.884 179.169C146.617 180.204 146.425 181.256 146.31 182.319C146.243 182.977 146.3 183.641 146.478 184.278C146.583 184.713 146.784 185.119 147.065 185.468C147.345 185.816 147.7 186.098 148.102 186.294C150.02 187.232 152.974 186.294 154.556 185.734L155.214 185.482C160.016 183.634 165.448 181.549 169.004 178.049C169.27 177.783 169.62 177.406 169.592 177.098C169.584 177.038 169.564 176.982 169.533 176.931C169.501 176.88 169.459 176.837 169.41 176.804C169.307 176.719 169.189 176.656 169.061 176.617C168.934 176.579 168.8 176.566 168.668 176.58C168.288 176.646 167.929 176.799 167.618 177.028C167.4 177.201 167.171 177.36 166.932 177.503C166.776 177.59 166.593 177.615 166.419 177.574C166.246 177.532 166.094 177.427 165.994 177.28C165.898 177.129 165.861 176.947 165.892 176.771C165.923 176.595 166.02 176.436 166.162 176.328L166.764 175.894C166.923 175.777 167.044 175.616 167.114 175.432C167.044 175.264 166.764 175.194 166.358 175.278C165.924 175.36 165.507 175.516 165.126 175.74C164.748 176.09 164.356 176.426 163.95 176.734C163.814 176.846 163.64 176.903 163.464 176.892C163.287 176.882 163.121 176.806 162.999 176.678C162.877 176.551 162.807 176.381 162.805 176.205C162.802 176.028 162.866 175.857 162.984 175.726C163.356 175.295 163.79 174.922 164.272 174.62C164.496 174.41 164.706 174.186 164.916 173.948C165.126 173.71 165.182 173.556 165.182 173.528C165.182 173.5 165.07 173.374 164.916 173.346C164.608 173.333 164.302 173.39 164.02 173.514C163.54 173.688 163.072 173.894 162.62 174.13C162.242 174.41 161.85 174.662 161.472 174.9C161.119 175.114 160.777 175.348 160.45 175.6C160.305 175.715 160.121 175.77 159.936 175.755C159.752 175.739 159.58 175.654 159.456 175.516C159.328 175.385 159.256 175.209 159.256 175.026C159.256 174.843 159.328 174.667 159.456 174.536C160.172 173.916 160.956 173.381 161.794 172.94C162.522 172.408 163.194 171.806 163.096 171.275C163.096 170.967 162.97 170.883 162.942 170.869C162.914 170.855 162.508 170.645 161.542 170.869C159.807 171.444 158.224 172.4 156.908 173.668C155.37 175.112 153.535 176.201 151.532 176.86C151.429 176.885 151.321 176.887 151.217 176.865C151.113 176.843 151.015 176.798 150.93 176.734C150.847 176.671 150.78 176.59 150.731 176.499C150.683 176.407 150.655 176.305 150.65 176.202C150.64 175.108 150.687 174.015 150.79 172.926C150.79 172.156 150.902 171.386 150.916 170.617C150.93 169.847 150.804 169.651 150.678 169.623C150.552 169.595 150.706 169.623 150.692 169.623Z" fill="#231F20"/>
<path d="M151.574 176.37C152.46 177.44 152.954 178.782 152.975 180.171C152.995 181.561 152.541 182.916 151.686 184.012H152.078" fill="white"/>
<path d="M151.686 184.712C151.554 184.715 151.423 184.679 151.311 184.609C151.198 184.539 151.109 184.438 151.052 184.318C150.996 184.198 150.976 184.064 150.994 183.933C151.012 183.802 151.067 183.679 151.154 183.578C151.901 182.608 152.298 181.413 152.28 180.188C152.262 178.963 151.831 177.78 151.056 176.832C150.927 176.698 150.855 176.52 150.855 176.335C150.855 176.149 150.927 175.971 151.056 175.838C151.124 175.777 151.204 175.73 151.291 175.701C151.378 175.671 151.469 175.66 151.561 175.666C151.652 175.673 151.741 175.697 151.823 175.739C151.904 175.78 151.977 175.838 152.036 175.908C152.941 176.99 153.488 178.327 153.6 179.734C153.713 181.14 153.387 182.547 152.666 183.76C152.68 183.825 152.68 183.892 152.666 183.956C152.674 184.141 152.61 184.322 152.487 184.46C152.364 184.599 152.192 184.684 152.008 184.698H151.574L151.686 184.712Z" fill="#231F20"/>
<path d="M346.541 145.162L158.376 127.113L145.302 263.371L333.466 281.42L346.541 145.162Z" fill="white"/>
<path d="M333.49 282.15L145.246 264.107C145.055 264.086 144.88 263.99 144.76 263.841C144.639 263.692 144.582 263.501 144.602 263.309L157.664 127.014C157.682 126.823 157.774 126.647 157.921 126.524C158.068 126.401 158.257 126.34 158.448 126.356L346.622 144.399C346.717 144.406 346.809 144.432 346.893 144.475C346.977 144.519 347.052 144.579 347.112 144.653C347.172 144.726 347.217 144.811 347.244 144.902C347.27 144.993 347.278 145.089 347.266 145.183L334.204 281.451C334.196 281.546 334.169 281.639 334.123 281.724C334.077 281.808 334.014 281.882 333.938 281.94C333.817 282.06 333.659 282.134 333.49 282.15ZM146.1 262.792L332.832 280.695L345.768 145.855L159.036 127.91L146.1 262.792Z" fill="#231F20"/>
<path d="M318.762 269.16H318.692L162.2 254.155C162.106 254.146 162.015 254.119 161.931 254.075C161.848 254.03 161.774 253.97 161.715 253.897C161.655 253.824 161.61 253.74 161.583 253.65C161.555 253.56 161.546 253.465 161.556 253.371L172.42 139.99C172.428 139.894 172.455 139.801 172.501 139.716C172.547 139.632 172.61 139.558 172.686 139.5C172.757 139.438 172.839 139.392 172.928 139.363C173.017 139.334 173.111 139.324 173.204 139.332L329.724 154.337C329.818 154.346 329.909 154.373 329.993 154.417C330.076 154.462 330.15 154.522 330.209 154.595C330.269 154.668 330.314 154.752 330.341 154.842C330.369 154.932 330.378 155.027 330.368 155.121L319.504 268.503C319.497 268.599 319.47 268.692 319.424 268.776C319.378 268.861 319.315 268.935 319.238 268.992C319.106 269.107 318.936 269.167 318.762 269.16ZM163.04 252.783L318.104 267.649L328.8 155.751L173.764 140.885L163.04 252.783Z" fill="#D1D3D4"/>
<path d="M87.356 345.854L86.166 354.561C86.166 354.561 110.414 357.08 109.49 354.98C107.703 351.958 105.749 349.037 103.638 346.232" fill="white"/>
<path d="M104.338 356.576C99.102 356.576 91.416 355.89 86.138 355.33C86.044 355.324 85.9527 355.296 85.8705 355.25C85.7882 355.204 85.7171 355.141 85.662 355.064C85.602 354.994 85.5583 354.911 85.5341 354.821C85.5099 354.732 85.5058 354.638 85.522 354.547L86.712 345.826C86.7364 345.642 86.8326 345.476 86.9796 345.363C87.1265 345.25 87.3122 345.2 87.496 345.224C87.6797 345.248 87.8462 345.345 87.959 345.492C88.0719 345.639 88.1218 345.824 88.098 346.008L87.006 354.015C96.456 354.966 106.606 355.54 108.706 354.952C107.46 352.615 103.106 346.792 103.106 346.722C103.039 346.65 102.989 346.564 102.957 346.471C102.926 346.378 102.914 346.279 102.924 346.181C102.933 346.083 102.963 345.988 103.012 345.903C103.06 345.817 103.126 345.743 103.205 345.684C103.284 345.626 103.375 345.585 103.471 345.564C103.567 345.543 103.667 345.542 103.763 345.562C103.859 345.582 103.95 345.622 104.03 345.68C104.11 345.737 104.177 345.811 104.226 345.896C106.373 348.735 108.351 351.698 110.148 354.771C110.223 354.922 110.254 355.092 110.237 355.261C110.219 355.429 110.155 355.589 110.05 355.722C109.574 356.268 107.376 356.576 104.338 356.576Z" fill="#231F20"/>
<path d="M147.164 187.526C147.164 187.526 162.886 197.996 168.99 194.861C172.602 192.999 175.486 190.339 178.79 188.058C181.929 185.998 184.94 183.75 187.806 181.325C188.134 181.05 188.426 180.735 188.674 180.387C188.885 180.015 189.054 179.62 189.178 179.211C189.713 177.615 190.378 176.065 191.166 174.578C191.438 173.979 191.901 173.487 192.482 173.178C195.716 171.904 193.686 178.609 193.028 179.799C195.52 177.461 198.096 175.11 200.812 172.996C200.943 172.864 201.101 172.762 201.275 172.697C201.449 172.632 201.635 172.605 201.82 172.618C202.012 172.696 202.169 172.842 202.262 173.027C202.355 173.213 202.377 173.426 202.324 173.626C202.213 174.023 202.001 174.385 201.708 174.676L197.368 179.785C198.606 178.283 199.959 176.879 201.414 175.586C201.932 175.11 203.402 173.71 204.214 174.27C205.516 175.25 200.868 180.513 200.014 181.381C201.243 179.697 202.688 178.181 204.312 176.874C204.742 176.445 205.316 176.191 205.922 176.16C206.244 176.482 205.922 177.028 205.656 177.377L202.632 180.863C204.158 179.183 205.852 177.405 208.078 176.986C208.19 177.349 207.924 177.713 207.672 178.007C203.22 183.201 198.754 188.324 194.064 193.293C187.82 199.9 181.044 207.529 172.154 210.09C161.612 213.17 152.176 206.927 143.51 201.565" fill="white"/>
<path d="M166.47 211.518C158.35 211.518 150.888 206.885 144.154 202.713L143.132 202.083C142.974 201.985 142.862 201.828 142.82 201.647C142.778 201.466 142.81 201.275 142.908 201.118C143.006 200.96 143.163 200.848 143.345 200.806C143.526 200.764 143.716 200.795 143.874 200.894L144.896 201.524C153.296 206.773 162.116 212.204 171.944 209.334C180.134 206.927 186.686 199.97 192.454 193.839L193.546 192.677C198.166 187.792 202.618 182.669 206.44 178.217C205.2 179.046 204.087 180.05 203.136 181.199C203.071 181.264 202.994 181.317 202.908 181.352C202.823 181.388 202.731 181.406 202.639 181.406C202.547 181.406 202.455 181.388 202.37 181.352C202.285 181.317 202.207 181.264 202.142 181.199C202.014 181.068 201.942 180.892 201.942 180.709C201.942 180.526 202.014 180.35 202.142 180.219L204.564 177.419C203.932 177.937 203.329 178.488 202.758 179.071C201.96 180.107 201.12 181.059 200.574 181.661C200.444 181.785 200.271 181.854 200.091 181.854C199.911 181.854 199.738 181.785 199.608 181.661C199.472 181.546 199.384 181.385 199.361 181.209C199.338 181.033 199.381 180.855 199.482 180.709C200.148 179.803 200.873 178.943 201.652 178.133C202.634 177.111 203.346 175.86 203.724 174.494C203.086 174.825 202.505 175.255 202.002 175.768C200.953 176.71 199.957 177.71 199.02 178.763L197.942 180.037C197.884 180.108 197.812 180.167 197.731 180.209C197.65 180.252 197.561 180.278 197.47 180.286C197.378 180.294 197.286 180.283 197.199 180.255C197.112 180.227 197.031 180.181 196.962 180.121C196.82 180.004 196.73 179.835 196.712 179.651C196.693 179.468 196.748 179.285 196.864 179.141C197.228 178.707 197.592 178.259 197.97 177.839L201.218 174.032C201.426 173.823 201.584 173.569 201.68 173.29C201.705 173.222 201.705 173.148 201.68 173.08C201.68 173.08 201.596 173.08 201.316 173.346C198.516 175.544 195.828 177.993 193.574 180.107C193.452 180.217 193.296 180.281 193.132 180.288C192.968 180.294 192.807 180.243 192.677 180.143C192.547 180.043 192.456 179.901 192.421 179.741C192.385 179.58 192.407 179.413 192.482 179.267C193.07 178.203 194.092 174.34 193.434 173.584C193.322 173.458 192.916 173.584 192.804 173.584C192.374 173.841 192.044 174.236 191.866 174.704C191.096 176.162 190.44 177.679 189.906 179.239C189.782 179.731 189.588 180.202 189.332 180.639C189.055 181.045 188.72 181.408 188.338 181.717C185.703 183.972 182.93 186.062 180.036 187.974L179.266 188.506C178.16 189.276 177.082 190.101 176.032 190.899C173.957 192.577 171.736 194.067 169.396 195.351C162.998 198.64 147.514 188.422 146.87 187.974C146.793 187.924 146.726 187.86 146.674 187.784C146.622 187.708 146.586 187.622 146.567 187.532C146.549 187.442 146.549 187.349 146.567 187.259C146.586 187.169 146.622 187.084 146.674 187.008C146.777 186.855 146.936 186.748 147.117 186.711C147.298 186.674 147.486 186.711 147.64 186.812C151.924 189.612 164.048 196.526 168.766 194.105C171.034 192.859 173.184 191.411 175.192 189.779C176.242 188.968 177.334 188.142 178.468 187.358L179.238 186.826C182.083 184.944 184.809 182.887 187.4 180.667C187.687 180.442 187.942 180.178 188.156 179.883C188.326 179.582 188.463 179.263 188.562 178.931C189.119 177.279 189.808 175.673 190.62 174.13C190.946 173.353 191.543 172.722 192.3 172.352C192.647 172.152 193.052 172.075 193.448 172.133C193.844 172.192 194.21 172.382 194.484 172.674C195.282 173.584 195.072 175.544 194.652 177.21C196.444 175.572 198.404 173.85 200.462 172.254C200.67 172.051 200.923 171.901 201.201 171.816C201.478 171.73 201.772 171.713 202.058 171.764C202.388 171.865 202.673 172.076 202.866 172.361C203.06 172.646 203.15 172.989 203.122 173.332C203.365 173.217 203.634 173.168 203.902 173.19C204.17 173.212 204.427 173.305 204.648 173.458C204.795 173.565 204.916 173.704 205.004 173.864C205.091 174.023 205.141 174.2 205.152 174.382C205.172 174.731 205.115 175.08 204.984 175.404C205.318 175.255 205.683 175.188 206.048 175.208C206.218 175.221 206.377 175.296 206.496 175.418C206.624 175.541 206.721 175.693 206.779 175.861C206.837 176.028 206.856 176.208 206.832 176.384C207.217 176.229 207.615 176.112 208.022 176.034C208.194 176.006 208.369 176.042 208.516 176.135C208.663 176.228 208.771 176.371 208.82 176.538C208.875 176.839 208.854 177.149 208.759 177.44C208.664 177.731 208.497 177.993 208.274 178.203C204.298 182.851 199.566 188.31 194.638 193.517L193.56 194.665C187.666 200.936 180.96 208.046 172.42 210.552C170.493 211.158 168.489 211.484 166.47 211.518Z" fill="#231F20"/>
<path d="M141.606 227.839L157.034 347.394L140.472 346.96L119.878 262.456L105.206 347.17L86.614 345.854L97.058 222.198L141.606 227.839Z" fill="#231F20"/>
<path d="M114.6 182.711C115.062 172.73 113.046 152.49 113.046 152.49C113.046 152.49 125.758 153.217 130.042 147.1C135.278 151.202 136.356 162.764 135.404 166.221C133.5 173.038 124.638 171.54 124.638 171.54L125.772 184.026L114.6 182.711Z" fill="white"/>
<path d="M125.8 184.726H125.716L114.516 183.396C114.34 183.375 114.179 183.289 114.065 183.154C113.951 183.019 113.892 182.845 113.9 182.669C114.362 172.87 112.374 152.756 112.346 152.56C112.338 152.458 112.352 152.355 112.386 152.259C112.419 152.163 112.473 152.074 112.542 152C112.614 151.929 112.699 151.874 112.793 151.837C112.887 151.801 112.987 151.785 113.088 151.79C113.214 151.79 125.464 152.42 129.468 146.708C129.522 146.628 129.592 146.56 129.674 146.51C129.756 146.459 129.848 146.426 129.944 146.415C130.133 146.39 130.324 146.44 130.476 146.555C135.964 150.852 137.084 162.75 136.076 166.403C134.41 172.408 127.83 172.506 125.408 172.324L126.472 183.956C126.48 184.061 126.465 184.167 126.429 184.266C126.393 184.365 126.336 184.455 126.262 184.53C126.138 184.65 125.973 184.72 125.8 184.726ZM115.356 182.095L125.03 183.229L123.966 171.61C123.958 171.504 123.974 171.397 124.013 171.298C124.052 171.199 124.112 171.109 124.19 171.037C124.266 170.961 124.359 170.904 124.461 170.873C124.564 170.841 124.673 170.835 124.778 170.855C125.114 170.855 133.052 172.156 134.746 166.039C135.558 163.114 134.746 152.462 130.168 148.122C125.968 153.035 116.672 153.259 113.844 153.217C114.194 156.969 115.65 173.206 115.342 182.095H115.356Z" fill="#231F20"/>
<path d="M124.652 171.54C122.654 171.301 120.76 170.516 119.178 169.273C119.178 169.273 121.586 175.32 125.324 176.272L124.652 171.54Z" fill="#231F20"/>
<path d="M125.324 176.86H125.17C121.166 175.894 118.688 169.777 118.576 169.525C118.521 169.387 118.516 169.235 118.562 169.094C118.608 168.953 118.702 168.833 118.828 168.755C118.949 168.671 119.096 168.634 119.243 168.649C119.389 168.665 119.525 168.732 119.626 168.839C121.111 169.981 122.876 170.701 124.736 170.925C124.875 170.942 125.004 171.005 125.102 171.104C125.201 171.203 125.264 171.332 125.282 171.47L125.954 176.146C125.969 176.248 125.958 176.352 125.924 176.45C125.89 176.547 125.833 176.635 125.758 176.706C125.637 176.807 125.482 176.862 125.324 176.86ZM120.802 171.106C121.652 172.814 122.943 174.263 124.54 175.306L124.092 172.156C122.958 171.937 121.854 171.584 120.802 171.106Z" fill="#231F20"/>
<path d="M134.2 177.573L163.236 193.489L156.236 213.8C156.236 213.8 119.752 194.483 119.5 189.262C119.248 184.04 134.2 177.573 134.2 177.573Z" fill="#843CFF"/>
<path d="M143.468 238.883C143.468 238.883 144.658 212.666 142.068 196.89C140.962 190.171 141.396 185.454 139.17 181.815C131.694 169.609 102.574 173.248 98.346 181.717C94.118 190.185 90.8 239.135 90.8 239.135L143.468 238.883Z" fill="#843CFF"/>
<path d="M115.132 159.586C114.973 158.802 114.599 158.077 114.053 157.491C113.507 156.906 112.81 156.483 112.038 156.269C111.692 156.155 111.326 156.116 110.964 156.155C110.602 156.193 110.252 156.309 109.938 156.493C109.574 156.806 109.296 157.207 109.132 157.658C108.968 158.109 108.922 158.595 109 159.068C109.12 160.583 109.805 161.996 110.918 163.03C112.04 164.048 113.505 164.603 115.02 164.584" fill="white"/>
<path d="M114.922 165.283C113.241 165.288 111.622 164.654 110.39 163.511C109.159 162.368 108.407 160.8 108.286 159.124C108.198 158.527 108.267 157.916 108.488 157.354C108.709 156.791 109.074 156.297 109.546 155.919C109.941 155.672 110.384 155.514 110.846 155.456C111.308 155.398 111.777 155.442 112.22 155.583C113.116 155.836 113.926 156.33 114.56 157.011C115.195 157.692 115.63 158.535 115.818 159.446C115.836 159.537 115.837 159.629 115.819 159.72C115.802 159.81 115.767 159.896 115.716 159.972C115.665 160.049 115.6 160.115 115.524 160.167C115.448 160.218 115.362 160.254 115.272 160.272C115.088 160.305 114.899 160.265 114.745 160.161C114.591 160.056 114.483 159.895 114.446 159.712C114.31 159.054 113.996 158.446 113.54 157.953C113.084 157.459 112.501 157.1 111.856 156.913C111.609 156.825 111.346 156.792 111.085 156.816C110.823 156.84 110.571 156.921 110.344 157.053C110.089 157.302 109.896 157.609 109.782 157.947C109.668 158.285 109.635 158.645 109.686 158.999C109.791 160.332 110.396 161.577 111.38 162.484C112.368 163.383 113.656 163.882 114.992 163.884C115.177 163.887 115.353 163.962 115.483 164.093C115.614 164.223 115.688 164.399 115.692 164.584C115.692 164.769 115.618 164.947 115.487 165.078C115.356 165.21 115.178 165.283 114.992 165.283H114.922Z" fill="#231F20"/>
<path d="M130.802 154.697C131.127 154.596 131.239 154.029 131.052 153.431C130.866 152.833 130.451 152.431 130.127 152.532C129.802 152.633 129.69 153.2 129.876 153.798C130.063 154.396 130.477 154.798 130.802 154.697Z" fill="#231F20"/>
<path d="M140.472 346.96C140.472 346.96 140.01 354.183 140.948 355.358C141.886 356.534 165.14 357.976 163.978 355.176C162.816 352.377 155.578 346.456 155.578 346.456" fill="white"/>
<path d="M155.48 357.5C148.956 357.5 141.13 356.702 140.402 355.778C139.38 354.505 139.66 348.682 139.772 346.918C139.79 346.732 139.878 346.56 140.019 346.438C140.159 346.316 140.342 346.252 140.528 346.26C140.62 346.267 140.71 346.292 140.792 346.334C140.874 346.376 140.947 346.434 141.007 346.504C141.067 346.574 141.112 346.656 141.141 346.743C141.169 346.831 141.18 346.924 141.172 347.016C140.962 350.361 141.032 354.337 141.494 354.91C145.118 355.629 148.803 355.999 152.498 356.016C159.344 356.254 162.592 355.75 163.264 355.302C162.214 353.091 157.118 348.584 155.2 347.002C155.128 346.943 155.068 346.871 155.023 346.789C154.979 346.708 154.952 346.618 154.943 346.525C154.933 346.433 154.943 346.339 154.97 346.251C154.998 346.162 155.042 346.079 155.102 346.008C155.219 345.866 155.388 345.776 155.572 345.757C155.755 345.739 155.939 345.794 156.082 345.91C156.39 346.162 163.404 351.985 164.622 354.91C164.741 355.208 164.74 355.54 164.62 355.837C164.5 356.135 164.27 356.374 163.978 356.506C162.774 357.22 159.4 357.5 155.48 357.5Z" fill="#231F20"/>
<path d="M133.234 153.917C133.234 153.917 138.344 159.74 137.084 161C135.824 162.26 132.884 161.63 132.884 161.63" fill="white"/>
<path d="M134.508 162.484C133.911 162.482 133.316 162.426 132.73 162.316C132.64 162.296 132.554 162.259 132.479 162.206C132.403 162.152 132.338 162.085 132.289 162.007C132.239 161.929 132.206 161.842 132.19 161.751C132.175 161.659 132.177 161.566 132.198 161.476C132.216 161.386 132.252 161.301 132.304 161.226C132.356 161.15 132.422 161.086 132.499 161.036C132.576 160.986 132.662 160.953 132.752 160.937C132.842 160.921 132.935 160.924 133.024 160.944C133.696 161.084 135.824 161.308 136.594 160.51C136.832 159.908 134.984 156.983 132.716 154.379C132.649 154.316 132.596 154.241 132.559 154.156C132.523 154.072 132.504 153.981 132.504 153.889C132.504 153.798 132.523 153.707 132.559 153.622C132.596 153.538 132.649 153.462 132.716 153.399C132.781 153.334 132.859 153.282 132.944 153.246C133.029 153.211 133.121 153.192 133.213 153.192C133.305 153.192 133.397 153.211 133.482 153.246C133.568 153.282 133.645 153.334 133.71 153.399C135.782 155.765 139.03 159.936 137.532 161.434C136.694 162.155 135.613 162.531 134.508 162.484Z" fill="#231F20"/>
<path d="M156.25 214.499C156.137 214.5 156.026 214.471 155.928 214.415C155.718 214.317 135.642 203.595 128.334 199.62C128.252 199.577 128.179 199.519 128.12 199.447C128.06 199.376 128.017 199.293 127.99 199.204C127.964 199.115 127.956 199.022 127.967 198.929C127.978 198.837 128.008 198.748 128.054 198.668C128.097 198.587 128.155 198.516 128.225 198.458C128.296 198.401 128.377 198.357 128.464 198.331C128.552 198.305 128.643 198.297 128.734 198.307C128.824 198.316 128.912 198.344 128.992 198.388C136.314 202.363 156.376 213.072 156.586 213.184C156.667 213.228 156.739 213.287 156.797 213.359C156.855 213.431 156.898 213.513 156.924 213.601C156.95 213.69 156.958 213.783 156.948 213.874C156.938 213.966 156.91 214.055 156.866 214.136C156.807 214.247 156.718 214.34 156.609 214.404C156.501 214.468 156.376 214.501 156.25 214.499Z" fill="#231F20"/>
<path d="M119.878 263.155C119.793 263.157 119.708 263.142 119.629 263.111C119.549 263.08 119.477 263.033 119.416 262.973C119.29 262.862 116.35 260.09 113.312 249.872C113.263 249.692 113.285 249.5 113.374 249.336C113.463 249.172 113.611 249.048 113.788 248.99C113.966 248.942 114.156 248.964 114.318 249.053C114.48 249.142 114.601 249.29 114.656 249.466C117.554 259.264 120.256 261.924 120.354 261.938C120.42 262.003 120.472 262.08 120.507 262.165C120.543 262.251 120.561 262.342 120.561 262.435C120.561 262.527 120.543 262.618 120.507 262.704C120.472 262.789 120.42 262.866 120.354 262.932C120.293 262.998 120.22 263.052 120.138 263.091C120.057 263.129 119.968 263.151 119.878 263.155Z" fill="white"/>
<path d="M284.84 224.676C284.736 224.677 284.633 224.655 284.539 224.611C284.444 224.568 284.361 224.504 284.294 224.424C283.734 223.794 229.078 161.224 222.204 156.325C219.558 154.421 203.164 160.874 168.878 186.406C168.723 186.502 168.538 186.536 168.359 186.502C168.18 186.468 168.021 186.368 167.912 186.223C167.803 186.077 167.753 185.895 167.771 185.714C167.789 185.533 167.874 185.365 168.01 185.244C168.136 185.16 179.966 176.356 192.51 168.293C218.256 151.72 221.91 154.295 223.044 155.149C230.044 160.146 283.118 220.938 285.372 223.472C285.506 223.608 285.581 223.792 285.581 223.983C285.581 224.174 285.506 224.358 285.372 224.494C285.224 224.619 285.034 224.684 284.84 224.676Z" fill="#D1D3D4"/>
<path d="M324.474 214.135C324.348 214.135 324.224 214.103 324.114 214.042C324.003 213.981 323.911 213.893 323.844 213.786C312.434 195.001 299.246 175.362 296.922 175.012C294.57 175.348 275.306 190.787 263.728 200.432C263.578 200.538 263.393 200.583 263.211 200.559C263.029 200.534 262.863 200.442 262.746 200.301C262.629 200.159 262.57 199.978 262.581 199.795C262.592 199.612 262.671 199.439 262.804 199.312C265.898 196.736 293.156 174.116 296.768 173.57C297.958 173.374 303.124 176.916 325.09 213.044C325.188 213.209 325.216 213.406 325.169 213.592C325.122 213.779 325.003 213.939 324.838 214.037C324.729 214.104 324.602 214.138 324.474 214.135Z" fill="#D1D3D4"/>
<path d="M267.522 174.004C266.336 174.004 265.177 173.652 264.192 172.993C263.206 172.335 262.438 171.398 261.985 170.302C261.532 169.207 261.414 168.002 261.646 166.839C261.879 165.677 262.451 164.609 263.29 163.772C264.129 162.935 265.198 162.365 266.362 162.135C267.525 161.906 268.73 162.027 269.825 162.482C270.919 162.938 271.854 163.708 272.511 164.695C273.168 165.682 273.517 166.842 273.514 168.027C273.51 169.614 272.877 171.134 271.754 172.254C270.631 173.375 269.109 174.004 267.522 174.004ZM267.522 163.478C266.622 163.478 265.742 163.745 264.994 164.244C264.246 164.744 263.663 165.455 263.318 166.286C262.974 167.117 262.884 168.032 263.059 168.915C263.235 169.797 263.668 170.608 264.305 171.244C264.941 171.88 265.752 172.313 266.634 172.489C267.517 172.664 268.432 172.574 269.263 172.23C270.095 171.886 270.805 171.303 271.305 170.554C271.805 169.806 272.072 168.927 272.072 168.027C272.072 166.821 271.593 165.663 270.739 164.81C269.886 163.957 268.729 163.478 267.522 163.478Z" fill="#D1D3D4"/>
<path d="M125.52 163.254C125.829 164.022 126.344 164.69 127.009 165.184C127.673 165.678 128.461 165.979 129.286 166.053C130.102 166.103 130.918 165.971 131.676 165.666C132.434 165.361 133.114 164.89 133.668 164.29" fill="white"/>
<path d="M129.692 166.697H129.216C128.27 166.619 127.364 166.283 126.596 165.725C125.828 165.167 125.228 164.409 124.862 163.534C124.795 163.359 124.8 163.165 124.877 162.995C124.953 162.824 125.093 162.691 125.268 162.624C125.442 162.557 125.636 162.562 125.807 162.638C125.978 162.715 126.111 162.855 126.178 163.03C126.445 163.664 126.882 164.212 127.44 164.614C127.998 165.017 128.656 165.258 129.342 165.311C130.053 165.351 130.764 165.233 131.424 164.967C132.085 164.701 132.679 164.293 133.164 163.772C133.229 163.706 133.306 163.654 133.392 163.619C133.477 163.583 133.569 163.565 133.661 163.565C133.753 163.565 133.845 163.583 133.93 163.619C134.015 163.654 134.093 163.706 134.158 163.772C134.223 163.836 134.275 163.912 134.31 163.996C134.346 164.08 134.364 164.17 134.364 164.262C134.364 164.353 134.346 164.443 134.31 164.527C134.275 164.611 134.223 164.688 134.158 164.752C133.581 165.357 132.889 165.842 132.122 166.176C131.355 166.51 130.529 166.687 129.692 166.697Z" fill="#231F20"/>
<path d="M109.56 170.785C106.744 170.785 103.967 170.124 101.454 168.853C100.204 168.298 99.1542 167.375 98.444 166.207C98.0601 165.497 97.9083 164.685 98.01 163.884C96.8817 164.048 95.7304 163.852 94.72 163.324C93.2551 162.501 91.9999 161.351 91.052 159.964C90.7131 159.576 90.5243 159.08 90.52 158.565C90.5763 158.07 90.81 157.612 91.178 157.277L92.116 156.255C93.8426 154.517 95.3516 152.576 96.61 150.474C97.3706 148.959 97.9983 147.38 98.486 145.757C98.892 144.539 99.312 143.279 99.886 142.075C103.666 133.537 110.652 132.151 117.008 131.913C121.012 131.773 126.346 133.033 128.768 137.022C128.926 136.904 129.101 136.81 129.286 136.742C130.046 136.462 130.886 136.492 131.624 136.826C132.669 137.417 133.505 138.317 134.018 139.402C136.382 143.669 137.443 148.536 137.07 153.399C137.065 153.492 137.041 153.583 137 153.666C136.958 153.749 136.901 153.823 136.83 153.883C136.759 153.943 136.677 153.989 136.588 154.016C136.5 154.044 136.406 154.053 136.314 154.043C136.131 154.029 135.96 153.943 135.84 153.804C135.719 153.665 135.658 153.485 135.67 153.301C136.014 148.73 135.017 144.157 132.8 140.144C132.404 139.33 131.769 138.656 130.98 138.212C130.585 138.052 130.143 138.052 129.748 138.212C129.632 138.251 129.525 138.314 129.433 138.396C129.342 138.477 129.268 138.577 129.216 138.688C129.162 138.811 129.074 138.916 128.963 138.99C128.851 139.065 128.72 139.106 128.586 139.108C128.45 139.105 128.318 139.064 128.204 138.99C128.09 138.916 127.999 138.811 127.942 138.688C126.122 134.614 120.942 133.313 117.022 133.481C108.538 133.789 103.932 136.49 101.146 142.803C100.648 143.965 100.208 145.152 99.83 146.359C99.294 148.028 98.6148 149.649 97.8 151.202C96.4917 153.407 94.9113 155.438 93.096 157.249L92.172 158.271C92.044 158.39 91.9395 158.533 91.864 158.691C91.9323 158.888 92.0476 159.066 92.2 159.208C93.0145 160.426 94.0968 161.441 95.364 162.176C95.9391 162.493 96.5878 162.652 97.2443 162.637C97.9008 162.622 98.5416 162.434 99.102 162.092C99.2495 161.992 99.4295 161.952 99.6055 161.98C99.7814 162.008 99.94 162.103 100.049 162.244C100.158 162.385 100.209 162.562 100.192 162.739C100.174 162.916 100.09 163.08 99.956 163.198C99.6502 163.518 99.4585 163.93 99.4104 164.371C99.3623 164.811 99.4606 165.255 99.69 165.633C100.29 166.506 101.125 167.19 102.098 167.607C104.694 168.923 107.592 169.527 110.498 169.357C110.59 169.349 110.683 169.36 110.771 169.39C110.859 169.419 110.94 169.466 111.01 169.527C111.079 169.589 111.135 169.664 111.175 169.747C111.214 169.831 111.237 169.922 111.24 170.015C111.246 170.107 111.233 170.199 111.203 170.286C111.173 170.373 111.126 170.453 111.065 170.522C111.004 170.591 110.93 170.647 110.847 170.688C110.764 170.728 110.674 170.751 110.582 170.757L109.56 170.785Z" fill="#231F20"/>
<path d="M271.918 184.32H512.452C522.91 184.32 528.468 191.585 524.842 200.544L470.746 334.376C467.134 343.334 455.71 350.599 445.252 350.599H204.704C194.246 350.599 188.702 343.334 192.328 334.376L246.41 200.544C250.036 191.585 261.446 184.32 271.918 184.32Z" fill="white"/>
<path d="M445.252 351.327H204.704C199.202 351.327 194.68 349.311 192.3 345.728C190.2 342.578 189.906 338.379 191.6 334.18L245.682 200.348C249.406 191.151 261.082 183.676 271.862 183.676H512.452C517.968 183.676 522.49 185.692 524.856 189.206C527.026 192.411 527.264 196.568 525.514 200.894L471.418 334.712C467.708 343.838 455.962 351.327 445.252 351.327ZM271.918 185.048C261.74 185.048 250.596 192.047 247.082 200.824L193 334.642C191.446 338.505 191.6 342.187 193.518 344.986C195.618 348.094 199.692 349.885 204.718 349.885H445.252C455.43 349.885 466.56 342.802 470.088 334.11L524.17 200.278C525.738 196.414 525.57 192.747 523.666 189.947C521.566 186.826 517.478 185.048 512.466 185.048H271.918Z" fill="#231F20"/>
<path d="M430.566 102.49H389.966C389.871 102.492 389.777 102.475 389.688 102.439C389.6 102.404 389.52 102.352 389.452 102.286C389.384 102.219 389.33 102.14 389.294 102.052C389.257 101.965 389.238 101.871 389.238 101.776V61.2245C389.207 61.1162 389.202 61.0021 389.222 60.8914C389.243 60.7806 389.289 60.6762 389.357 60.5862C389.425 60.4963 389.512 60.4233 389.613 60.3731C389.714 60.3228 389.825 60.2967 389.938 60.2967C390.051 60.2967 390.162 60.3228 390.263 60.3731C390.363 60.4233 390.451 60.4963 390.519 60.5862C390.587 60.6762 390.633 60.7806 390.654 60.8914C390.674 61.0021 390.669 61.1162 390.638 61.2245V101.048H430.552C430.66 101.017 430.774 101.012 430.885 101.032C430.996 101.053 431.1 101.099 431.19 101.167C431.28 101.235 431.353 101.322 431.403 101.423C431.454 101.524 431.48 101.635 431.48 101.748C431.48 101.861 431.454 101.972 431.403 102.072C431.353 102.173 431.28 102.261 431.19 102.329C431.1 102.397 430.996 102.443 430.885 102.463C430.774 102.484 430.66 102.479 430.552 102.448L430.566 102.49Z" fill="#231F20"/>
<path d="M287.724 87.8201C286.614 87.7887 285.534 87.4537 284.601 86.8516C283.668 86.2494 282.918 85.4032 282.432 84.4047C280.794 81.2552 276.244 64.8079 275.432 58.257C275.181 56.7872 275.516 55.2778 276.363 54.0511C277.211 52.8244 278.504 51.9778 279.968 51.692C283.146 50.8102 287.5 51.692 288.662 54.3096C289.614 56.4653 291.294 60.5246 291.294 60.5246L289.964 61.0845C289.964 61.0845 288.2 57.0252 287.304 54.8835C286.562 53.1758 283.104 52.2939 280.304 53.0778C279.178 53.2792 278.179 53.918 277.523 54.8544C276.867 55.7908 276.608 56.9487 276.804 58.075C277.7 65.0739 282.236 80.9333 283.692 83.7328C284.103 84.6266 284.799 85.3596 285.669 85.8177C286.54 86.2759 287.538 86.4336 288.508 86.2664C289.219 86.035 289.822 85.5553 290.208 84.9151C290.594 84.275 290.736 83.5173 290.608 82.781C290.426 77.4898 283.286 58.145 283.216 57.949C283.183 57.8599 283.168 57.7651 283.171 57.6701C283.175 57.5751 283.198 57.4819 283.239 57.3958C283.279 57.3098 283.336 57.2326 283.407 57.169C283.478 57.1053 283.56 57.0564 283.65 57.0252C283.828 56.9611 284.025 56.9692 284.197 57.0476C284.37 57.126 284.505 57.2686 284.574 57.4451C284.868 58.257 291.854 77.2099 292.05 82.725C292.199 83.7924 291.96 84.8778 291.377 85.7843C290.794 86.6909 289.905 87.3585 288.872 87.6662C288.497 87.7649 288.112 87.8166 287.724 87.8201Z" fill="#231F20"/>
<path d="M484.634 228.553H402.244C401.385 228.608 400.527 228.442 399.751 228.072C398.974 227.702 398.305 227.14 397.806 226.439C397.321 225.591 397.053 224.637 397.023 223.661C396.994 222.685 397.205 221.716 397.638 220.84L400.438 214.079C401.343 212.063 402.775 210.328 404.584 209.057C406.392 207.785 408.51 207.025 410.714 206.857H493.118C493.976 206.809 494.832 206.977 495.607 207.347C496.383 207.716 497.053 208.274 497.556 208.97C498.04 209.818 498.309 210.773 498.338 211.749C498.368 212.725 498.157 213.694 497.724 214.569L494.924 221.344C494.017 223.361 492.582 225.096 490.771 226.364C488.96 227.633 486.84 228.39 484.634 228.553ZM410.742 208.2C408.82 208.356 406.976 209.026 405.402 210.139C403.828 211.252 402.583 212.768 401.796 214.527L398.996 221.302C398.644 221.964 398.46 222.702 398.46 223.451C398.46 224.2 398.644 224.938 398.996 225.6C399.38 226.083 399.877 226.464 400.444 226.708C401.011 226.952 401.629 227.052 402.244 226.999H484.634C486.543 226.858 488.379 226.209 489.952 225.118C491.525 224.028 492.778 222.536 493.58 220.798L496.38 214.037C496.733 213.374 496.918 212.634 496.918 211.882C496.918 211.13 496.733 210.39 496.38 209.726C496.008 209.229 495.516 208.834 494.951 208.577C494.386 208.32 493.765 208.21 493.146 208.256L410.742 208.2Z" fill="#D1D3D4"/>
</svg>
